# xmcd
#
# Track frame offsets: 
#        150
#        27645
#        48552
#        72074
#        93584
#        114317
#        136224
#        155052
#        185882
#        204930
#        226449
#        248789
#        272434
#        301318
#        325132
#
# Disc length: 4604 seconds
#
# Revision: 0
# Processed by: cddbd v1.5.2PL0 Copyright (c) Steve Scherf et al.
# Submitted via: ExactAudioCopyFreeDBPlugin 1.0
#
DISCID=d311fa0f
DTITLE=Various Artist - Tinh khuc tien chien 2
DYEAR=1900
DGENRE=Pop
TTITLE0=Evis Phuong - Ao anh sut chi duong ta
TTITLE1=Y Lan - Nu hon duoi mua
TTITLE2=Vu Khanh - Anh biet em di chang tro ve
TTITLE3=Y Lan - 25 nam tinh cu
TTITLE4=Bang Kieu - Ban tinh ca cho em
TTITLE5=Tran Thai Hoa - Co lang gieng
TTITLE6=Khanh Ly - Con tuoi nao cho em
TTITLE7=Tuan Ngoc - Mua tren vung toc roi
TTITLE8=Y Lan - Ngau nhien
TTITLE9=Vu Khanh - Thuo ban dau
TTITLE10=Ai Van - Em ve mua thu
TTITLE11=Khanh Ly - Ngay do chung minh
TTITLE12=Tran Thai Hoa - Dem dong
TTITLE13=Bang Kieu - Buon oi chao mi
TTITLE14=Dalena Duy Quang - Mong saau
EXTD=
EXTT0=
EXTT1=
EXTT2=
EXTT3=
EXTT4=
EXTT5=
EXTT6=
EXTT7=
EXTT8=
EXTT9=
EXTT10=
EXTT11=
EXTT12=
EXTT13=
EXTT14=
PLAYORDER=
